<svg xmlns="http://www.w3.org/2000/svg" width="400" height="860" viewBox="0 0 400 860">
<defs><clipPath id="screen"><rect x="0" y="0" width="400" height="860" rx="34"/></clipPath></defs>
<rect x="0" y="0" width="400" height="860" rx="34" fill="#f1f3f8"/>
<g clip-path="url(#screen)"><text x="20" y="26" font-family="DejaVu Sans, Liberation Sans, sans-serif" font-size="11" fill="#8a93a6">14:32</text><text x="380" y="26" font-family="DejaVu Sans, Liberation Sans, sans-serif" font-size="11" fill="#8a93a6" text-anchor="end">LTE  98%</text><text x="20" y="68" font-family="DejaVu Sans, Liberation Sans, sans-serif" font-size="22" font-weight="bold" fill="#1f2433">Tagesprotokoll</text><text x="20" y="88" font-family="DejaVu Sans, Liberation Sans, sans-serif" font-size="12" fill="#8a93a6">Dienstag, 22. Mai · 14:32</text><rect x="16" y="104" width="368" height="58" rx="18" fill="#ffffff" stroke="#e6e9f0"/><rect x="16" y="104" width="368" height="58" rx="18" fill="none" stroke="#000" stroke-opacity="0.0"/><text x="32" y="138" font-family="DejaVu Sans, Liberation Sans, sans-serif" font-size="13" fill="#8a93a6">Was ist gerade passiert?</text><circle cx="336" cy="133" r="16" fill="#eef0fe"/><g transform="translate(336,133) scale(0.8)" fill="#4f46e5">
<rect x="-4.5" y="-11" width="9" height="15" rx="4.5"/>
<path d="M -8 -1 a 8 8 0 0 0 16 0" fill="none" stroke="#4f46e5" stroke-width="2"/>
<line x1="0" y1="7" x2="0" y2="11" stroke="#4f46e5" stroke-width="2"/></g><circle cx="372" cy="133" r="16" fill="#4f46e5"/><text x="372" y="139" font-family="DejaVu Sans, Liberation Sans, sans-serif" font-size="19" fill="#fff" text-anchor="middle">+</text><rect x="18" y="176" width="103.8" height="28" rx="14" fill="#eef0fe"/><text x="69.9" y="194" font-family="DejaVu Sans, Liberation Sans, sans-serif" font-size="11" fill="#4f46e5" text-anchor="middle">Wasserhahn an</text><rect x="129.8" y="176" width="117.0" height="28" rx="14" fill="#eef0fe"/><text x="188.3" y="194" font-family="DejaVu Sans, Liberation Sans, sans-serif" font-size="11" fill="#4f46e5" text-anchor="middle">Material geholt</text><rect x="254.8" y="176" width="51.0" height="28" rx="14" fill="#eef0fe"/><text x="280.3" y="194" font-family="DejaVu Sans, Liberation Sans, sans-serif" font-size="11" fill="#4f46e5" text-anchor="middle">Pause</text><rect x="313.8" y="176" width="90.6" height="28" rx="14" fill="#eef0fe"/><text x="359.1" y="194" font-family="DejaVu Sans, Liberation Sans, sans-serif" font-size="11" fill="#4f46e5" text-anchor="middle">Kunde info.</text><text x="20" y="232" font-family="DejaVu Sans, Liberation Sans, sans-serif" font-size="11" font-weight="bold" fill="#8a93a6" letter-spacing="0.5">HEUTE</text><rect x="16" y="246" width="368" height="66" rx="16" fill="#ffffff" stroke="#e6e9f0"/><rect x="30" y="260" width="44" height="20" rx="10" fill="#eef0fe"/><text x="52" y="274" font-family="DejaVu Sans, Liberation Sans, sans-serif" font-size="10.5" fill="#4f46e5" text-anchor="middle">14:18</text><text x="86" y="273" font-family="DejaVu Sans, Liberation Sans, sans-serif" font-size="13" fill="#1f2433">Heizung im Bad angeschlossen,</text><text x="86" y="291" font-family="DejaVu Sans, Liberation Sans, sans-serif" font-size="13" fill="#1f2433">Druck geprüft.</text><rect x="16" y="324" width="368" height="48" rx="16" fill="#ffffff" stroke="#e6e9f0"/><rect x="30" y="338" width="44" height="20" rx="10" fill="#eef0fe"/><text x="52" y="352" font-family="DejaVu Sans, Liberation Sans, sans-serif" font-size="10.5" fill="#4f46e5" text-anchor="middle">13:50</text><text x="86" y="351" font-family="DejaVu Sans, Liberation Sans, sans-serif" font-size="13" fill="#1f2433">Material vom Großhandel geholt.</text><rect x="16" y="384" width="368" height="48" rx="16" fill="#ffffff" stroke="#e6e9f0"/><rect x="30" y="398" width="44" height="20" rx="10" fill="#eef0fe"/><text x="52" y="412" font-family="DejaVu Sans, Liberation Sans, sans-serif" font-size="10.5" fill="#4f46e5" text-anchor="middle">12:30</text><text x="86" y="411" font-family="DejaVu Sans, Liberation Sans, sans-serif" font-size="13" fill="#1f2433">Mittagspause.</text><rect x="16" y="444" width="368" height="66" rx="16" fill="#ffffff" stroke="#e6e9f0"/><rect x="30" y="458" width="44" height="20" rx="10" fill="#eef0fe"/><text x="52" y="472" font-family="DejaVu Sans, Liberation Sans, sans-serif" font-size="10.5" fill="#4f46e5" text-anchor="middle">11:05</text><text x="86" y="471" font-family="DejaVu Sans, Liberation Sans, sans-serif" font-size="13" fill="#1f2433">Wasserhahn Küche montiert —</text><text x="86" y="489" font-family="DejaVu Sans, Liberation Sans, sans-serif" font-size="13" fill="#1f2433">dicht.</text><rect x="14" y="798" width="372" height="46" rx="23" fill="#ffffff" stroke="#e6e9f0"/><circle cx="40" cy="821" r="4" fill="#22c55e"/><text x="54" y="825" font-family="DejaVu Sans, Liberation Sans, sans-serif" font-size="11" fill="#8a93a6">Bereit</text><text x="250" y="825" font-family="DejaVu Sans, Liberation Sans, sans-serif" font-size="11.5" fill="#1f2433">Archiv</text><text x="322" y="825" font-family="DejaVu Sans, Liberation Sans, sans-serif" font-size="11.5" fill="#4f46e5" font-weight="bold">Export</text></g></svg>