<svg xmlns="http://www.w3.org/2000/svg" width="400" height="860" viewBox="0 0 400 860">
<defs><clipPath id="screen"><rect x="0" y="0" width="400" height="860" rx="34"/></clipPath></defs>
<rect x="0" y="0" width="400" height="860" rx="34" fill="#f5f0e8"/>
<g clip-path="url(#screen)"><rect x="0" y="0" width="400" height="200" fill="url(#sun)"/><defs><radialGradient id="sun" cx="82%" cy="0%" r="70%">
<stop offset="0%" stop-color="#c0392b" stop-opacity="0.10"/>
<stop offset="55%" stop-color="#c0392b" stop-opacity="0"/></radialGradient></defs><text x="20" y="26" font-family="DejaVu Sans Mono, monospace" font-size="11" fill="#9a8f82">14:32</text><text x="380" y="26" font-family="DejaVu Sans Mono, monospace" font-size="11" fill="#9a8f82" text-anchor="end">LTE  98%</text><rect x="0" y="40" width="400" height="62" fill="#1a1612"/><text x="22" y="78" font-family="Bitstream Charter, DejaVu Serif, serif" font-size="23" font-weight="bold" fill="#f5f0e8">Tagesprotokoll</text><text x="22" y="93" font-family="DejaVu Sans Mono, monospace" font-size="9.5" fill="#a89a8a" letter-spacing="1">DI., 22. MAI</text><text x="378" y="84" font-family="Bitstream Charter, DejaVu Serif, serif" font-style="italic" font-size="26" fill="#c0392b" text-anchor="end">14:32</text><rect x="0" y="102" width="400" height="64" fill="#faf7f2"/><line x1="0" y1="166" x2="400" y2="166" stroke="#e2ddd6" stroke-width="1.5"/><text x="20" y="141" font-family="DejaVu Sans Mono, monospace" font-size="11" fill="#c0392b">14:32</text><text x="60" y="141" font-family="DejaVu Sans Mono, monospace" font-size="13" fill="#9a8f82">Was ist gerade passiert?</text><circle cx="334" cy="134" r="17" fill="#faf7f2" stroke="#e2ddd6"/><g transform="translate(334,134) scale(0.85)" fill="#1a1612">
<rect x="-4.5" y="-11" width="9" height="15" rx="4.5"/>
<path d="M -8 -1 a 8 8 0 0 0 16 0" fill="none" stroke="#1a1612" stroke-width="2"/>
<line x1="0" y1="7" x2="0" y2="11" stroke="#1a1612" stroke-width="2"/></g><circle cx="374" cy="134" r="17" fill="#c0392b"/><text x="374" y="140" font-family="DejaVu Sans, Liberation Sans, sans-serif" font-size="20" fill="#fff" text-anchor="middle">+</text><rect x="20" y="178" width="99.2" height="26" rx="13" fill="#faf7f2" stroke="#e2ddd6"/><text x="69.6" y="195" font-family="DejaVu Sans Mono, monospace" font-size="10.5" fill="#1a1612" text-anchor="middle">Wasserhahn an</text><rect x="127.2" y="178" width="112.0" height="26" rx="13" fill="#faf7f2" stroke="#e2ddd6"/><text x="183.2" y="195" font-family="DejaVu Sans Mono, monospace" font-size="10.5" fill="#1a1612" text-anchor="middle">Material geholt</text><rect x="247.2" y="178" width="48.0" height="26" rx="13" fill="#faf7f2" stroke="#e2ddd6"/><text x="271.2" y="195" font-family="DejaVu Sans Mono, monospace" font-size="10.5" fill="#1a1612" text-anchor="middle">Pause</text><rect x="303.2" y="178" width="86.4" height="26" rx="13" fill="#faf7f2" stroke="#e2ddd6"/><text x="346.4" y="195" font-family="DejaVu Sans Mono, monospace" font-size="10.5" fill="#1a1612" text-anchor="middle">Kunde info.</text><text x="20" y="232" font-family="DejaVu Sans Mono, monospace" font-size="10" fill="#9a8f82" letter-spacing="1.5">HEUTE</text><line x1="70" y1="228" x2="380" y2="228" stroke="#e2ddd6"/><line x1="68" y1="250" x2="68" y2="578" stroke="#e2ddd6" stroke-width="1.5"/><circle cx="68" cy="262" r="4.5" fill="#c0392b"/><circle cx="68" cy="262" r="8" fill="none" stroke="#c0392b" stroke-opacity="0.25"/><text x="50" y="266" font-family="DejaVu Sans Mono, monospace" font-size="10.5" fill="#c0392b" text-anchor="end">14:18</text><text x="86" y="266" font-family="Bitstream Charter, DejaVu Serif, serif" font-size="14.5" fill="#1a1612">Heizung im Bad angeschlossen,</text><text x="86" y="285" font-family="Bitstream Charter, DejaVu Serif, serif" font-size="14.5" fill="#1a1612">Druck geprüft.</text><circle cx="68" cy="354" r="4.5" fill="#c0392b"/><circle cx="68" cy="354" r="8" fill="none" stroke="#c0392b" stroke-opacity="0.25"/><text x="50" y="358" font-family="DejaVu Sans Mono, monospace" font-size="10.5" fill="#c0392b" text-anchor="end">13:50</text><text x="86" y="358" font-family="Bitstream Charter, DejaVu Serif, serif" font-size="14.5" fill="#1a1612">Material vom Großhandel</text><text x="86" y="377" font-family="Bitstream Charter, DejaVu Serif, serif" font-size="14.5" fill="#1a1612">geholt.</text><circle cx="68" cy="446" r="4.5" fill="#c0392b"/><circle cx="68" cy="446" r="8" fill="none" stroke="#c0392b" stroke-opacity="0.25"/><text x="50" y="450" font-family="DejaVu Sans Mono, monospace" font-size="10.5" fill="#c0392b" text-anchor="end">12:30</text><text x="86" y="450" font-family="Bitstream Charter, DejaVu Serif, serif" font-size="14.5" fill="#1a1612">Mittagspause.</text><circle cx="68" cy="538" r="4.5" fill="#c0392b"/><circle cx="68" cy="538" r="8" fill="none" stroke="#c0392b" stroke-opacity="0.25"/><text x="50" y="542" font-family="DejaVu Sans Mono, monospace" font-size="10.5" fill="#c0392b" text-anchor="end">11:05</text><text x="86" y="542" font-family="Bitstream Charter, DejaVu Serif, serif" font-size="14.5" fill="#1a1612">Wasserhahn Küche montiert —</text><text x="86" y="561" font-family="Bitstream Charter, DejaVu Serif, serif" font-size="14.5" fill="#1a1612">dicht.</text><rect x="0" y="814" width="400" height="46" fill="#faf7f2"/><line x1="0" y1="814" x2="400" y2="814" stroke="#e2ddd6"/><circle cx="20" cy="837" r="3.5" fill="#c0392b"/><text x="32" y="841" font-family="DejaVu Sans Mono, monospace" font-size="9.5" fill="#9a8f82">Bereit · v11</text><rect x="250" y="826" width="62" height="22" rx="3" fill="none" stroke="#e2ddd6"/><text x="281" y="841" font-family="DejaVu Sans Mono, monospace" font-size="9.5" fill="#9a8f82" text-anchor="middle">Archiv</text><rect x="320" y="826" width="62" height="22" rx="3" fill="none" stroke="#e2ddd6"/><text x="351" y="841" font-family="DejaVu Sans Mono, monospace" font-size="9.5" fill="#9a8f82" text-anchor="middle">Export</text></g></svg>