<svg xmlns="http://www.w3.org/2000/svg" width="400" height="860" viewBox="0 0 400 860">
<defs><clipPath id="screen"><rect x="0" y="0" width="400" height="860" rx="34"/></clipPath></defs>
<rect x="0" y="0" width="400" height="860" rx="34" fill="#15120d"/>
<g clip-path="url(#screen)"><defs><radialGradient id="glow" cx="50%" cy="0%" r="80%">
<stop offset="0%" stop-color="#e0a44a" stop-opacity="0.12"/>
<stop offset="60%" stop-color="#e0a44a" stop-opacity="0"/></radialGradient></defs><rect x="0" y="0" width="400" height="240" fill="url(#glow)"/><text x="20" y="26" font-family="DejaVu Sans Mono, monospace" font-size="11" fill="#7d7466">14:32</text><text x="380" y="26" font-family="DejaVu Sans Mono, monospace" font-size="11" fill="#7d7466" text-anchor="end">LTE  98%</text><text x="22" y="74" font-family="Bitstream Charter, DejaVu Serif, serif" font-size="24" font-weight="bold" fill="#ece4d6">Tagesprotokoll</text><text x="22" y="91" font-family="DejaVu Sans Mono, monospace" font-size="9.5" fill="#7d7466" letter-spacing="1.5">DI · 22. MAI 2026</text><text x="378" y="80" font-family="DejaVu Sans Mono, monospace" font-size="22" fill="#e0a44a" text-anchor="end">14:32</text><line x1="20" y1="104" x2="380" y2="104" stroke="#2c2720"/><rect x="16" y="118" width="368" height="48" rx="12" fill="#1e1a13" stroke="#2c2720"/><text x="30" y="147" font-family="DejaVu Sans Mono, monospace" font-size="12.5" fill="#7d7466">Was ist gerade passiert?</text><circle cx="338" cy="142" r="15" fill="none" stroke="#2c2720"/><g transform="translate(338,142) scale(0.8)" fill="#e0a44a">
<rect x="-4.5" y="-11" width="9" height="15" rx="4.5"/>
<path d="M -8 -1 a 8 8 0 0 0 16 0" fill="none" stroke="#e0a44a" stroke-width="2"/>
<line x1="0" y1="7" x2="0" y2="11" stroke="#e0a44a" stroke-width="2"/></g><circle cx="372" cy="142" r="15" fill="#e0a44a"/><text x="372" y="148" font-family="DejaVu Sans, Liberation Sans, sans-serif" font-size="19" fill="#15120d" text-anchor="middle">+</text><rect x="20" y="180" width="96.60000000000001" height="25" rx="6" fill="#1e1a13" stroke="#2c2720"/><text x="68.30000000000001" y="197" font-family="DejaVu Sans Mono, monospace" font-size="10" fill="#e0a44a" text-anchor="middle">Wasserhahn an</text><rect x="124.60000000000001" y="180" width="109.0" height="25" rx="6" fill="#1e1a13" stroke="#2c2720"/><text x="179.10000000000002" y="197" font-family="DejaVu Sans Mono, monospace" font-size="10" fill="#e0a44a" text-anchor="middle">Material geholt</text><rect x="241.60000000000002" y="180" width="47.0" height="25" rx="6" fill="#1e1a13" stroke="#2c2720"/><text x="265.1" y="197" font-family="DejaVu Sans Mono, monospace" font-size="10" fill="#e0a44a" text-anchor="middle">Pause</text><rect x="296.6" y="180" width="84.2" height="25" rx="6" fill="#1e1a13" stroke="#2c2720"/><text x="338.70000000000005" y="197" font-family="DejaVu Sans Mono, monospace" font-size="10" fill="#e0a44a" text-anchor="middle">Kunde info.</text><text x="20" y="234" font-family="DejaVu Sans Mono, monospace" font-size="9.5" fill="#7d7466" letter-spacing="2">// HEUTE</text><line x1="70" y1="250" x2="70" y2="578" stroke="#2c2720" stroke-width="1.5"/><circle cx="70" cy="262" r="11" fill="#e0a44a" fill-opacity="0.15"/><circle cx="70" cy="262" r="4" fill="#e0a44a"/><text x="50" y="265" font-family="DejaVu Sans Mono, monospace" font-size="10" fill="#e0a44a" text-anchor="end">14:18</text><text x="88" y="265" font-family="DejaVu Sans Mono, monospace" font-size="12.5" fill="#ece4d6">Heizung im Bad</text><text x="88" y="283" font-family="DejaVu Sans Mono, monospace" font-size="12.5" fill="#ece4d6">angeschlossen, Druck</text><text x="88" y="301" font-family="DejaVu Sans Mono, monospace" font-size="12.5" fill="#ece4d6">geprüft.</text><circle cx="70" cy="356" r="11" fill="#e0a44a" fill-opacity="0.15"/><circle cx="70" cy="356" r="4" fill="#e0a44a"/><text x="50" y="359" font-family="DejaVu Sans Mono, monospace" font-size="10" fill="#e0a44a" text-anchor="end">13:50</text><text x="88" y="359" font-family="DejaVu Sans Mono, monospace" font-size="12.5" fill="#ece4d6">Material vom Großhandel</text><text x="88" y="377" font-family="DejaVu Sans Mono, monospace" font-size="12.5" fill="#ece4d6">geholt.</text><circle cx="70" cy="448" r="11" fill="#e0a44a" fill-opacity="0.15"/><circle cx="70" cy="448" r="4" fill="#e0a44a"/><text x="50" y="451" font-family="DejaVu Sans Mono, monospace" font-size="10" fill="#e0a44a" text-anchor="end">12:30</text><text x="88" y="451" font-family="DejaVu Sans Mono, monospace" font-size="12.5" fill="#ece4d6">Mittagspause.</text><circle cx="70" cy="540" r="11" fill="#e0a44a" fill-opacity="0.15"/><circle cx="70" cy="540" r="4" fill="#e0a44a"/><text x="50" y="543" font-family="DejaVu Sans Mono, monospace" font-size="10" fill="#e0a44a" text-anchor="end">11:05</text><text x="88" y="543" font-family="DejaVu Sans Mono, monospace" font-size="12.5" fill="#ece4d6">Wasserhahn Küche montiert —</text><text x="88" y="561" font-family="DejaVu Sans Mono, monospace" font-size="12.5" fill="#ece4d6">dicht.</text><rect x="0" y="814" width="400" height="46" fill="#1e1a13"/><circle cx="20" cy="837" r="3.5" fill="#e0a44a"/><text x="32" y="841" font-family="DejaVu Sans Mono, monospace" font-size="9.5" fill="#7d7466">bereit · v11</text><rect x="250" y="826" width="62" height="22" rx="6" fill="none" stroke="#2c2720"/><text x="281" y="841" font-family="DejaVu Sans Mono, monospace" font-size="9.5" fill="#ece4d6" text-anchor="middle">Archiv</text><rect x="320" y="826" width="62" height="22" rx="6" fill="none" stroke="#2c2720"/><text x="351" y="841" font-family="DejaVu Sans Mono, monospace" font-size="9.5" fill="#ece4d6" text-anchor="middle">Export</text></g></svg>