<svg xmlns="http://www.w3.org/2000/svg" width="760" height="320" viewBox="0 0 760 320"><rect width="760" height="320" fill="#eceef2"/><rect x="56" y="56" width="168" height="168" rx="38" fill="#faf7f2"/><rect x="56" y="56" width="168" height="168" rx="38" fill="none" stroke="#e2ddd6" stroke-width="2"/><text x="140.0" y="164" font-family="Bitstream Charter, DejaVu Serif, serif" font-size="108" font-weight="bold" fill="#1a1612" text-anchor="middle">T</text><rect x="100" y="184" width="80" height="7" rx="3.5" fill="#c0392b"/><circle cx="184" cy="96" r="13" fill="#c0392b" fill-opacity="0.85"/><rect x="296" y="56" width="168" height="168" rx="38" fill="#15120d"/><line x1="380.0" y1="94" x2="380.0" y2="186" stroke="#2c2720" stroke-width="6"/><circle cx="380.0" cy="140" r="34" fill="#e0a44a" fill-opacity="0.18"/><circle cx="380.0" cy="140" r="15" fill="#e0a44a"/><text x="380.0" y="206" font-family="DejaVu Sans Mono, monospace" font-size="20" fill="#ece4d6" text-anchor="middle">protokoll</text><defs><linearGradient id="ig" x1="0" y1="0" x2="1" y2="1">
<stop offset="0%" stop-color="#6366f1"/><stop offset="100%" stop-color="#4338ca"/></linearGradient></defs><rect x="536" y="56" width="168" height="168" rx="38" fill="url(#ig)"/><rect x="582" y="94" width="76" height="92" rx="12" fill="#fff"/><rect x="594" y="112" width="52" height="6" rx="3" fill="#c7cbf5"/><rect x="594" y="128" width="52" height="6" rx="3" fill="#c7cbf5"/><rect x="594" y="144" width="52" height="6" rx="3" fill="#c7cbf5"/><circle cx="652" cy="172" r="22" fill="#22c55e"/><path d="M 642 172 l 7 8 l 13 -16" fill="none" stroke="#fff" stroke-width="5" stroke-linecap="round" stroke-linejoin="round"/><text x="140.0" y="258" font-family="DejaVu Sans, Liberation Sans, sans-serif" font-size="16" fill="#5a6072" text-anchor="middle">A · Sonnenaufgang</text><text x="380.0" y="258" font-family="DejaVu Sans, Liberation Sans, sans-serif" font-size="16" fill="#5a6072" text-anchor="middle">B · Mitternacht</text><text x="620.0" y="258" font-family="DejaVu Sans, Liberation Sans, sans-serif" font-size="16" fill="#5a6072" text-anchor="middle">C · Karten</text></svg>